<svg width="23" height="5" viewBox="0 0 23 5" fill="none" xmlns="http://www.w3.org/2000/svg">
<path fill-rule="evenodd" clip-rule="evenodd" d="M2.93877 4.8723C4.34926 4.8723 5.49269 3.8115 5.49269 2.50295C5.49269 1.1944 4.34926 0.133606 2.93877 0.133606C1.52828 0.133606 0.384857 1.1944 0.384857 2.50295C0.384857 3.8115 1.52828 4.8723 2.93877 4.8723Z" fill="#D4D4D4"/>
<path fill-rule="evenodd" clip-rule="evenodd" d="M11.4518 4.8723C12.8623 4.8723 14.0057 3.8115 14.0057 2.50295C14.0057 1.1944 12.8623 0.133606 11.4518 0.133606C10.0413 0.133606 8.8979 1.1944 8.8979 2.50295C8.8979 3.8115 10.0413 4.8723 11.4518 4.8723Z" fill="#D4D4D4"/>
<path fill-rule="evenodd" clip-rule="evenodd" d="M19.9649 4.8723C21.3754 4.8723 22.5188 3.8115 22.5188 2.50295C22.5188 1.1944 21.3754 0.133606 19.9649 0.133606C18.5544 0.133606 17.411 1.1944 17.411 2.50295C17.411 3.8115 18.5544 4.8723 19.9649 4.8723Z" fill="#D4D4D4"/>
</svg>
